<svg id="visual" viewBox="0 0 900 200" width="900" height="200" xmlns="http://www.w3.org/2000/svg" xmlns:xlink="http://www.w3.org/1999/xlink" version="1.1"><path d="M0 35L56 35L56 39L113 39L113 35L169 35L169 29L225 29L225 27L281 27L281 29L338 29L338 43L394 43L394 35L450 35L450 43L506 43L506 19L563 19L563 33L619 33L619 35L675 35L675 41L731 41L731 25L788 25L788 19L844 19L844 43L900 43L900 43L900 0L900 0L844 0L844 0L788 0L788 0L731 0L731 0L675 0L675 0L619 0L619 0L563 0L563 0L506 0L506 0L450 0L450 0L394 0L394 0L338 0L338 0L281 0L281 0L225 0L225 0L169 0L169 0L113 0L113 0L56 0L56 0L0 0Z" fill="#8bd3dd"></path><path d="M0 83L56 83L56 83L113 83L113 99L169 99L169 93L225 93L225 95L281 95L281 71L338 71L338 107L394 107L394 65L450 65L450 87L506 87L506 107L563 107L563 87L619 87L619 101L675 101L675 91L731 91L731 113L788 113L788 79L844 79L844 107L900 107L900 87L900 41L900 41L844 41L844 17L788 17L788 23L731 23L731 39L675 39L675 33L619 33L619 31L563 31L563 17L506 17L506 41L450 41L450 33L394 33L394 41L338 41L338 27L281 27L281 25L225 25L225 27L169 27L169 33L113 33L113 37L56 37L56 33L0 33Z" fill="#7bc9ee"></path><path d="M0 131L56 131L56 105L113 105L113 139L169 139L169 129L225 129L225 113L281 113L281 119L338 119L338 133L394 133L394 111L450 111L450 133L506 133L506 135L563 135L563 131L619 131L619 127L675 127L675 131L731 131L731 143L788 143L788 103L844 103L844 153L900 153L900 119L900 85L900 105L844 105L844 77L788 77L788 111L731 111L731 89L675 89L675 99L619 99L619 85L563 85L563 105L506 105L506 85L450 85L450 63L394 63L394 105L338 105L338 69L281 69L281 93L225 93L225 91L169 91L169 97L113 97L113 81L56 81L56 81L0 81Z" fill="#8bbaf8"></path><path d="M0 189L56 189L56 171L113 171L113 173L169 173L169 171L225 171L225 173L281 173L281 177L338 177L338 189L394 189L394 183L450 183L450 187L506 187L506 167L563 167L563 187L619 187L619 171L675 171L675 175L731 175L731 179L788 179L788 189L844 189L844 179L900 179L900 181L900 117L900 151L844 151L844 101L788 101L788 141L731 141L731 129L675 129L675 125L619 125L619 129L563 129L563 133L506 133L506 131L450 131L450 109L394 109L394 131L338 131L338 117L281 117L281 111L225 111L225 127L169 127L169 137L113 137L113 103L56 103L56 129L0 129Z" fill="#b3a5f1"></path><path d="M0 201L56 201L56 201L113 201L113 201L169 201L169 201L225 201L225 201L281 201L281 201L338 201L338 201L394 201L394 201L450 201L450 201L506 201L506 201L563 201L563 201L619 201L619 201L675 201L675 201L731 201L731 201L788 201L788 201L844 201L844 201L900 201L900 201L900 179L900 177L844 177L844 187L788 187L788 177L731 177L731 173L675 173L675 169L619 169L619 185L563 185L563 165L506 165L506 185L450 185L450 181L394 181L394 187L338 187L338 175L281 175L281 171L225 171L225 169L169 169L169 171L113 171L113 169L56 169L56 187L0 187Z" fill="#dd8bd3"></path></svg>